<?xml version="1.0" encoding="utf-8"?>
<!-- Generator: Adobe Illustrator 16.0.0, SVG Export Plug-In . SVG Version: 6.00 Build 0)  -->
<!DOCTYPE svg PUBLIC "-//W3C//DTD SVG 1.1//EN" "http://www.w3.org/Graphics/SVG/1.1/DTD/svg11.dtd">
<svg version="1.1" id="Layer_1" xmlns="http://www.w3.org/2000/svg" xmlns:xlink="http://www.w3.org/1999/xlink" x="0px" y="0px"
	 width="500px" height="500px" viewBox="-699.5 -124.5 500 500" enable-background="new -699.5 -124.5 500 500"
	 xml:space="preserve">
<g>
	<path fill="#FFFFFF" d="M-449.498,240.908c63.743,0,115.425-51.672,115.425-115.422c0-63.746-51.682-115.423-115.425-115.423
		c-63.751,0-115.423,51.677-115.423,115.423C-564.926,189.236-513.249,240.908-449.498,240.908z"/>
	
		<linearGradient id="SVGID_1_" gradientUnits="userSpaceOnUse" x1="-582.5273" y1="873.1113" x2="-782.4208" y2="526.8843" gradientTransform="matrix(1 0 0 1 158.0195 -531.1992)">
		<stop  offset="0" style="stop-color:#1E8E3E"/>
		<stop  offset="1" style="stop-color:#34A853"/>
	</linearGradient>
	<path fill="url(#SVGID_1_)" d="M-549.458,183.223l-99.94-173.107c-20.266,35.094-30.936,74.898-30.936,115.422
		c0,40.521,10.665,80.326,30.931,115.414c20.263,35.087,49.402,64.222,84.501,84.478c35.094,20.251,74.904,30.912,115.417,30.902
		l99.948-173.108v-0.027c-10.123,17.56-24.684,32.132-42.237,42.27c-17.541,10.146-37.448,15.477-57.715,15.486
		c-20.253,0-40.166-5.34-57.713-15.463C-524.76,215.351-539.328,200.773-549.458,183.223z"/>
	
		<linearGradient id="SVGID_2_" gradientUnits="userSpaceOnUse" x1="-641.1899" y1="888.1377" x2="-441.2965" y2="541.9121" gradientTransform="matrix(1 0 0 1 158.0195 -531.1992)">
		<stop  offset="0" style="stop-color:#FCC934"/>
		<stop  offset="1" style="stop-color:#FBBC04"/>
	</linearGradient>
	<path fill="url(#SVGID_2_)" d="M-349.551,183.214l-99.938,173.107c40.521,0.01,80.326-10.655,115.416-30.911
		c35.102-20.266,64.236-49.41,84.492-84.492c20.256-35.092,30.916-74.906,30.916-115.423c-0.01-40.519-10.68-80.328-30.954-115.413
		h-199.889l-0.023,0.019c20.27-0.009,40.177,5.318,57.726,15.444c17.563,10.125,32.129,24.693,42.265,42.241
		c10.132,17.548,15.468,37.456,15.468,57.719c0,20.261-5.336,40.158-15.468,57.709H-349.551z"/>
	<path fill="#1A73E8" d="M-449.498,216.892c50.462,0,91.382-40.907,91.382-91.378c0-50.46-40.92-91.375-91.382-91.375
		c-50.47,0-91.38,40.915-91.38,91.375C-540.878,175.984-499.968,216.892-449.498,216.892z"/>
	
		<linearGradient id="SVGID_3_" gradientUnits="userSpaceOnUse" x1="-807.4136" y1="570.1504" x2="-407.6387" y2="570.1504" gradientTransform="matrix(1 0 0 1 158.0195 -531.1992)">
		<stop  offset="0" style="stop-color:#D93025"/>
		<stop  offset="1" style="stop-color:#EA4335"/>
	</linearGradient>
	<path fill="url(#SVGID_3_)" d="M-449.498,10.092h199.879c-20.247-35.095-49.382-64.239-84.474-84.497
		c-35.099-20.265-74.903-30.931-115.424-30.926c-40.519,0-80.324,10.675-115.413,30.945c-35.085,20.258-64.22,49.407-84.464,84.501
		l99.936,173.107l0.028,0.01c-10.145-17.541-15.481-37.435-15.491-57.699c-0.005-20.268,5.328-40.175,15.454-57.729
		c10.128-17.557,24.698-32.125,42.25-42.255C-489.664,15.419-469.764,10.087-449.498,10.092z"/>
</g>
</svg>
