<?xml version="1.0" encoding="utf-8"?>
<!-- Generator: Adobe Illustrator 16.0.0, SVG Export Plug-In . SVG Version: 6.00 Build 0)  -->
<!DOCTYPE svg PUBLIC "-//W3C//DTD SVG 1.1//EN" "http://www.w3.org/Graphics/SVG/1.1/DTD/svg11.dtd">
<svg version="1.1" id="Layer_1" xmlns="http://www.w3.org/2000/svg" xmlns:xlink="http://www.w3.org/1999/xlink" x="0px" y="0px"
	 width="500px" height="500px" viewBox="0 0 500 500" enable-background="new 0 0 500 500" xml:space="preserve">
<g>
	
		<radialGradient id="SVGID_1_" cx="-9072.8945" cy="4503.0273" r="1384.9508" fx="-9161.252" fy="4503.0273" gradientTransform="matrix(0.1159 0.0046 0.0076 -0.1707 1477.9823 971.131)" gradientUnits="userSpaceOnUse">
		<stop  offset="0.1" style="stop-color:#FFEA00"/>
		<stop  offset="0.17" style="stop-color:#FFDE00"/>
		<stop  offset="0.28" style="stop-color:#FFBF00"/>
		<stop  offset="0.43" style="stop-color:#FF8E00"/>
		<stop  offset="0.77" style="stop-color:#FF272D"/>
		<stop  offset="0.87" style="stop-color:#E0255A"/>
		<stop  offset="0.95" style="stop-color:#CC2477"/>
		<stop  offset="1" style="stop-color:#C42482"/>
	</radialGradient>
	<path fill="url(#SVGID_1_)" d="M387.462,62.493c-11.212,13.045-16.433,42.441-5.069,72.229
		c11.371,29.789,28.793,23.322,39.66,53.69c14.34,40.081,7.67,93.916,7.67,93.916s17.229,49.912,29.245-3.094
		C485.566,179.639,387.462,87.024,387.462,62.493z"/>
	
		<radialGradient id="_Path__1_" cx="-5381.415" cy="4604.0645" r="2430.323" gradientTransform="matrix(0.1875 0 0 -0.1875 1328.5977 954.6956)" gradientUnits="userSpaceOnUse">
		<stop  offset="0" style="stop-color:#00CCDA"/>
		<stop  offset="0.22" style="stop-color:#0083FF"/>
		<stop  offset="0.26" style="stop-color:#007AF9"/>
		<stop  offset="0.33" style="stop-color:#0060E8"/>
		<stop  offset="0.33" style="stop-color:#005FE7"/>
		<stop  offset="0.44" style="stop-color:#2639AD"/>
		<stop  offset="0.52" style="stop-color:#401E84"/>
		<stop  offset="0.57" style="stop-color:#4A1475"/>
	</radialGradient>
	<path id="_Path_" fill="url(#_Path__1_)" d="M250.641,475.974c114.826,0,207.852-93.524,207.852-208.821
		c0-115.311-93.024-208.837-207.748-208.837c-114.713,0-207.738,93.503-207.738,208.825
		C42.791,382.557,135.918,475.974,250.641,475.974z"/>
	
		<linearGradient id="SVGID_2_" gradientUnits="userSpaceOnUse" x1="3343.498" y1="-6218.1338" x2="2755.4663" y2="-4294.5889" gradientTransform="matrix(0.1524 0 0 -0.1524 -229.6709 -586.7355)">
		<stop  offset="0" style="stop-color:#000F43;stop-opacity:0.4"/>
		<stop  offset="0.48" style="stop-color:#001962;stop-opacity:0.17"/>
		<stop  offset="1" style="stop-color:#002079;stop-opacity:0"/>
	</linearGradient>
	<path fill="url(#SVGID_2_)" d="M406.372,395.897c-4.481,3.175-9.205,6.019-14.099,8.516c6.484-9.515,12.47-19.363,17.937-29.502
		c4.435-4.894,8.481-9.663,11.801-14.816c1.605-2.53,3.417-5.658,5.341-9.271c11.664-21.024,24.535-55.046,24.908-89.989v-2.652
		c0.057-8.777-0.846-17.523-2.685-26.103c0.098,0.675,0.178,1.333,0.266,2.006c-0.103-0.512-0.187-1.036-0.303-1.542
		c0.168,0.926,0.303,1.874,0.467,2.81c2.386,20.235,0.695,39.97-7.812,54.517c-0.129,0.212-0.273,0.413-0.404,0.623
		c4.406-22.112,5.878-46.537,0.972-70.99c0,0-1.956-11.878-16.563-47.96c-8.433-20.772-23.331-37.795-36.523-50.209
		c-11.567-14.298-22.062-23.873-27.85-29.985c-12.091-12.729-17.16-22.276-19.232-28.503c-1.802-0.904-24.886-23.33-26.72-24.184
		c-10.064,15.622-41.742,64.459-26.693,110.109c6.834,20.679,24.106,42.138,42.182,54.197c0.785,0.903,10.766,11.7,15.488,36.133
		c4.889,25.214,2.344,44.877-7.74,73.98c-11.852,25.519-42.15,50.738-70.58,53.315c-60.712,5.519-82.951-30.481-82.951-30.481
		c21.702,8.659,45.691,6.865,60.265-2.105c14.7-9.103,23.597-15.839,30.814-13.188c7.101,2.613,12.795-5.079,7.688-13.042
		c-8.031-12.363-22.669-18.73-37.179-16.191c-14.718,2.399-28.204,14.044-47.483,2.762c-1.26-0.727-2.469-1.511-3.632-2.37
		c-1.27-0.843,4.136,1.275,2.88,0.32c-3.749-2.042-10.396-6.48-12.118-8.069c-0.294-0.258,2.908,1.027,2.628,0.766
		c-18.028-14.843-15.778-24.88-15.218-31.169c0.471-5.036,3.744-11.479,9.252-14.099c2.67,1.459,4.328,2.568,4.328,2.568
		s-1.139-2.339-1.751-3.548c0.215-0.095,0.42-0.077,0.635-0.158c2.185,1.056,7.03,3.792,9.561,5.463
		c3.31,2.343,4.369,4.43,4.369,4.43s0.878-0.472,0.224-2.511c-0.238-0.838-1.241-3.484-4.514-6.172h0.21
		c1.96,1.114,3.818,2.4,5.555,3.847c0.934-3.357,2.586-6.872,2.222-13.153c-0.224-4.416-0.112-5.557-0.896-7.268
		c-0.701-1.478,0.382-2.04,1.596-0.511c-0.206-1.195-0.542-2.351-1.037-3.471v-0.105c1.518-5.272,31.968-18.952,34.185-20.549
		c3.641-2.576,6.689-5.883,8.949-9.728c1.694-2.696,2.969-6.481,3.286-12.232c0.167-4.134-1.755-6.896-32.55-10.118
		c-8.435-0.834-13.365-6.929-16.166-12.558c-0.509-1.221-1.046-2.315-1.559-3.419c-0.504-1.281-0.896-2.601-1.2-3.938
		c5.037-14.455,13.486-26.691,25.927-35.923c0.687-0.617-2.703,0.163-2.036-0.474c0.79-0.717,5.952-2.811,6.923-3.279
		c1.186-0.558-5.093-3.229-10.653-2.577c-5.648,0.637-6.844,1.308-9.858,2.586c1.255-1.246,5.228-2.88,4.294-2.871
		c-6.086,0.937-13.658,4.479-20.133,8.48c-0.019-0.698,0.117-1.391,0.388-2.042c-3.016,1.286-10.428,6.458-12.585,10.837
		c0.093-0.831,0.13-1.684,0.121-2.519c-2.292,1.911-4.369,4.081-6.18,6.472l-0.103,0.101c-17.491-7.033-32.882-7.484-45.906-4.346
		c-2.856-2.864-4.248-0.761-10.728-15.021c-0.443-0.858,0.332,0.853,0,0c-1.074-2.757,0.654,3.686,0,0
		c-10.896,8.605-25.245,18.353-32.139,25.235c-0.089,0.278,8.033-2.294,0,0c-2.811,0.803-2.624,2.472-3.049,17.552
		c-0.102,1.146,0,2.428-0.102,3.467c-5.5,7.021-9.252,12.938-10.658,16.022c-7.114,12.252-14.952,31.372-22.551,61.602
		c3.352-8.18,7.394-16.057,12.071-23.557c-6.32,16.042-12.421,41.238-13.64,80.032c1.522-8.001,3.482-15.923,5.868-23.719
		c-1.499,32.181,4.057,64.313,16.259,94.135c4.37,10.68,11.596,26.906,23.882,44.664c38.661,40.701,93.165,65.979,153.523,65.979
		C310.904,467.249,367.501,439.685,406.372,395.897z"/>
	
		<radialGradient id="SVGID_3_" cx="-5053.0908" cy="2763.4417" r="819.8602" gradientTransform="matrix(0.186 0.0183 0.0183 -0.186 1366.7937 931.1921)" gradientUnits="userSpaceOnUse">
		<stop  offset="0" style="stop-color:#FFEA00"/>
		<stop  offset="0.5" style="stop-color:#FF272D"/>
		<stop  offset="1" style="stop-color:#C42482"/>
	</radialGradient>
	<path fill="url(#SVGID_3_)" d="M359.762,425.441c76.258-8.837,110.041-87.423,66.66-88.959
		C387.266,335.208,323.648,429.605,359.762,425.441z"/>
	
		<radialGradient id="SVGID_4_" cx="-5127.2842" cy="3549.469" r="1368.9418" gradientTransform="matrix(0.186 0.0183 0.0183 -0.186 1366.7937 931.1921)" gradientUnits="userSpaceOnUse">
		<stop  offset="0" style="stop-color:#FFE900"/>
		<stop  offset="0.16" style="stop-color:#FFAF0E"/>
		<stop  offset="0.32" style="stop-color:#FF7A1B"/>
		<stop  offset="0.47" style="stop-color:#FF4E26"/>
		<stop  offset="0.62" style="stop-color:#FF2C2E"/>
		<stop  offset="0.76" style="stop-color:#FF1434"/>
		<stop  offset="0.89" style="stop-color:#FF0538"/>
		<stop  offset="1" style="stop-color:#FF0039"/>
	</radialGradient>
	<path fill="url(#SVGID_4_)" d="M431.911,320.415c52.47-30.526,38.764-96.49,38.764-96.49s-20.245,23.534-34.007,61.025
		C423.107,322.101,400.374,338.858,431.911,320.415z"/>
	
		<radialGradient id="SVGID_5_" cx="-4933.6699" cy="2280.5178" r="1256.1691" gradientTransform="matrix(0.186 0.0183 0.0183 -0.186 1366.7937 931.1921)" gradientUnits="userSpaceOnUse">
		<stop  offset="0" style="stop-color:#FF272D"/>
		<stop  offset="0.5" style="stop-color:#C42482"/>
		<stop  offset="0.99" style="stop-color:#620700"/>
	</radialGradient>
	<path fill="url(#SVGID_5_)" d="M265.346,464.467c73.157,23.34,136.036-34.297,97.272-53.533
		C327.395,393.586,230.624,453.437,265.346,464.467z"/>
	
		<radialGradient id="SVGID_6_" cx="3883.6006" cy="-5187.4482" r="2402.4944" fx="3969.532" fy="-5229.9209" gradientTransform="matrix(0.1524 0 0 -0.1524 -229.6709 -586.7355)" gradientUnits="userSpaceOnUse">
		<stop  offset="0.16" style="stop-color:#FFEA00"/>
		<stop  offset="0.23" style="stop-color:#FFDE00"/>
		<stop  offset="0.37" style="stop-color:#FFBF00"/>
		<stop  offset="0.54" style="stop-color:#FF8E00"/>
		<stop  offset="0.76" style="stop-color:#FF272D"/>
		<stop  offset="0.8" style="stop-color:#F92433"/>
		<stop  offset="0.84" style="stop-color:#E91C45"/>
		<stop  offset="0.89" style="stop-color:#CF0E62"/>
		<stop  offset="0.94" style="stop-color:#B5007F"/>
	</radialGradient>
	<path fill="url(#SVGID_6_)" d="M437.364,348.418c1.782-2.496,4.182-10.549,6.311-14.145c12.912-20.833,13.007-37.446,13.007-37.84
		c7.81-38.962,7.094-54.871,2.295-84.287c-3.869-23.686-20.758-57.639-35.383-73.981c-15.072-16.85-4.458-11.357-19.051-23.655
		c-12.796-14.185-25.193-28.233-31.963-33.884c-48.828-40.836-47.727-49.498-46.784-50.985c-0.157,0.173-0.392,0.432-0.69,0.766
		c-0.586-2.294-0.988-4.24-0.988-4.24s-26.691,26.683-32.313,71.177c-3.666,29.031,7.207,59.317,22.947,78.661
		c8.197,10.039,17.454,19.135,27.621,27.171l0,0c11.895,17.073,18.434,38.145,18.434,60.828
		c0,56.766-46.045,102.784-102.851,102.784c-7.735,0-15.457-0.864-23.009-2.586c-26.794-5.117-42.283-18.637-49.995-27.813
		c-4.425-5.267-6.302-9.094-6.302-9.094c24.003,8.606,50.569,6.806,66.711-2.11c16.269-9.019,26.112-15.706,34.11-13.064
		c7.875,2.623,14.145-4.995,8.52-12.895c-5.504-7.887-19.854-19.195-41.14-16.052c-16.291,2.372-31.21,13.935-52.562,2.73
		c-1.363-0.71-2.703-1.495-4.006-2.339c-1.4-0.826,4.575,1.269,3.184,0.312c-4.155-2.018-11.502-6.424-13.416-7.982
		c-0.317-0.268,3.226,1.008,2.904,0.747c-19.961-14.721-17.464-24.674-16.852-30.904c0.495-4.993,4.117-11.39,10.232-13.984
		c2.951,1.441,4.799,2.537,4.799,2.537s-1.265-2.298-1.942-3.508c0.243-0.096,0.472-0.077,0.7-0.163
		c2.418,1.053,7.763,3.749,10.578,5.421c3.674,2.313,4.836,4.389,4.836,4.389s0.961-0.474,0.256-2.495
		c-0.266-0.826-1.372-3.461-5-6.121h0.225c2.151,1.103,4.206,2.381,6.143,3.831c1.027-3.333,2.871-6.823,2.46-13.045
		c-0.248-4.378-0.126-5.506-0.99-7.208c-0.771-1.458,0.434-2.019,1.77-0.509c-0.229-1.19-0.617-2.336-1.14-3.437v-0.104
		c1.678-5.227,35.357-18.796,37.818-20.383c3.954-2.485,7.324-5.771,9.911-9.661c1.876-2.683,3.276-6.423,3.631-12.116
		c0.113-2.568-0.671-4.604-9.597-6.554c-5.359-1.167-13.64-2.294-26.421-3.499c-9.319-0.823-14.794-6.873-17.898-12.451
		c-0.56-1.207-1.135-2.292-1.713-3.375c-0.546-1.268-0.99-2.577-1.326-3.917c5.578-14.597,15.624-27.054,28.695-35.606
		c0.751-0.615-2.997,0.147-2.246-0.479c0.873-0.707,6.583-2.772,7.669-3.242c1.312-0.554-5.625-3.202-11.782-2.556
		c-6.26,0.63-7.585,1.295-10.923,2.566c1.41-1.234,5.797-2.858,4.761-2.85c-6.75,0.932-15.125,4.447-22.295,8.433
		c-0.009-0.697,0.135-1.386,0.439-2.019c-3.333,1.271-11.535,6.402-13.916,10.765c0.098-0.831,0.135-1.671,0.126-2.5
		c-2.507,1.879-4.808,4.026-6.839,6.417l-0.126,0.101c-19.335-6.979-36.364-7.453-50.77-4.292c-3.15-2.846-8.23-7.134-15.404-21.259
		c-0.467-0.858-0.747,1.756-1.12,0.928c-2.811-6.466-4.472-17.061-4.211-24.35c0,0-5.77,2.628-10.54,13.61
		c-0.892,1.968-1.461,3.063-2.026,4.152c-0.266,0.316,0.597-3.608,0.476-3.39c-0.84,1.4-2.979,3.365-3.921,5.91
		c-0.644,1.872-1.549,2.93-2.128,5.282l-0.13,0.214c-0.056-0.698,0.168-2.854,0-2.408c-2.25,4.502-4.169,9.168-5.77,13.938
		c-2.572,8.421-5.564,19.951-6.041,34.917c-0.107,1.129,0,2.398-0.112,3.428c-6.086,6.944-10.241,12.828-11.81,15.879
		c-7.865,12.174-16.544,31.11-24.946,61.083c3.734-8.197,8.207-16.03,13.36-23.412c-6.993,15.918-13.743,40.908-15.097,79.386
		c1.69-7.966,3.865-15.823,6.489-23.53c-1.209,25.656,1.783,57.462,18.01,93.368c9.634,21.082,31.799,63.972,85.972,97.396l0,0
		c0,0,18.429,13.725,50.107,23.999c2.329,0.849,4.7,1.693,7.119,2.496c-0.751-0.313-1.494-0.625-2.203-0.929
		c21.09,6.308,42.983,9.527,64.999,9.546c82.027,0.08,106.228-32.872,106.228-32.872l-0.243,0.188
		c1.157-1.093,2.276-2.231,3.343-3.407c-12.939,12.216-42.498,13.047-53.516,12.174c18.83-5.522,31.229-10.213,55.326-19.434
		c2.811-1.046,5.694-2.239,8.664-3.574l0.934-0.44c0.58-0.274,1.167-0.526,1.755-0.821c11.745-5.536,22.79-12.448,32.901-20.608
		c24.203-19.335,29.496-38.186,32.229-50.611c-0.393,1.187-1.578,3.968-2.428,5.771c-6.236,13.332-20.055,21.539-35.076,28.56
		c7.143-9.373,13.771-19.129,19.844-29.227C432.173,361.135,433.686,353.535,437.364,348.418z"/>
	
		<radialGradient id="SVGID_7_" cx="3745.8428" cy="-4073.2249" r="2738.1799" gradientTransform="matrix(0.1524 0 0 -0.1524 -229.6709 -586.7355)" gradientUnits="userSpaceOnUse">
		<stop  offset="0.28" style="stop-color:#FFEA00"/>
		<stop  offset="0.4" style="stop-color:#FFDD00"/>
		<stop  offset="0.63" style="stop-color:#FFBA00"/>
		<stop  offset="0.86" style="stop-color:#FF9100"/>
		<stop  offset="0.93" style="stop-color:#FF6711"/>
		<stop  offset="0.99" style="stop-color:#FF4A1D"/>
	</radialGradient>
	<path fill="url(#SVGID_7_)" d="M407.898,394.675c9.867-10.886,18.729-23.331,25.449-37.467
		c17.272-36.322,44.012-96.703,22.939-159.802c-16.618-49.856-39.454-77.115-68.434-103.752
		c-47.082-43.244-60.237-62.552-60.237-74.032c0,0-54.354,60.596-30.771,123.795c23.578,63.195,71.855,60.863,103.803,126.823
		c37.578,77.596-30.407,162.283-86.619,185.997c3.436-0.766,125.01-28.278,131.382-97.806
		C445.243,359.716,442.508,378.943,407.898,394.675z"/>
	
		<linearGradient id="SVGID_8_" gradientUnits="userSpaceOnUse" x1="-7157.75" y1="3276.2864" x2="-6214.6763" y2="3516.6711" gradientTransform="matrix(0.186 0.0183 0.0183 -0.186 1366.7937 931.1921)">
		<stop  offset="0" style="stop-color:#C42482;stop-opacity:0.5"/>
		<stop  offset="0.47" style="stop-color:#FF272D;stop-opacity:0.5"/>
		<stop  offset="0.49" style="stop-color:#FF2C2C;stop-opacity:0.51"/>
		<stop  offset="0.68" style="stop-color:#FF7A1A;stop-opacity:0.72"/>
		<stop  offset="0.83" style="stop-color:#FFB20D;stop-opacity:0.87"/>
		<stop  offset="0.94" style="stop-color:#FFD605;stop-opacity:0.96"/>
		<stop  offset="1" style="stop-color:#FFE302"/>
	</linearGradient>
	<path fill="url(#SVGID_8_)" d="M250.417,169.165c0.182-4.105-1.941-6.874-35.907-10.058c-13.971-1.295-19.322-14.199-20.955-19.631
		c-4.967,12.902-7.026,26.449-5.919,42.834c0.756,10.736,7.964,22.247,11.413,29.035c0,0,0.766-0.999,1.121-1.363
		c6.479-6.759,33.684-17.05,36.233-18.514C239.223,189.667,249.94,181.844,250.417,169.165z"/>
	
		<linearGradient id="SVGID_9_" gradientUnits="userSpaceOnUse" x1="2746.3281" y1="-3117.2209" x2="2578.7148" y2="-2687.667" gradientTransform="matrix(0.1509 0.0152 0.0152 -0.1509 -272.1707 -367.9971)">
		<stop  offset="0" style="stop-color:#891551;stop-opacity:0.6"/>
		<stop  offset="1" style="stop-color:#C42482;stop-opacity:0"/>
	</linearGradient>
	<path fill="url(#SVGID_9_)" d="M100.908,92.888c-0.466-0.859-0.743,1.755-1.116,0.934c-2.81-6.473-4.486-16.954-4.085-24.355
		c0,0-5.769,2.63-10.531,13.61c-0.891,1.979-1.466,3.068-2.035,4.153c-0.261,0.312,0.597-3.609,0.48-3.389
		c-0.835,1.401-2.978,3.359-3.907,5.798c-0.775,1.979-1.568,3.053-2.157,5.502c-0.187,0.669,0.177-2.96,0-2.514
		c-11.082,21.419-13.215,53.881-12.043,52.48c23.639-25.215,50.705-31.201,50.705-31.201
		C113.339,111.785,107.079,105.653,100.908,92.888L100.908,92.888z"/>
	
		<linearGradient id="SVGID_10_" gradientUnits="userSpaceOnUse" x1="2715.4131" y1="-5323.8965" x2="3004.4512" y2="-5652.1543" gradientTransform="matrix(0.1509 0.0152 0.0152 -0.1509 -199.1322 -605.8652)">
		<stop  offset="0.01" style="stop-color:#891551;stop-opacity:0.5"/>
		<stop  offset="0.48" style="stop-color:#FF272D;stop-opacity:0.5"/>
		<stop  offset="1" style="stop-color:#FF272D;stop-opacity:0"/>
	</linearGradient>
	<path fill="url(#SVGID_10_)" d="M190.6,356.784c-32.648-13.939-69.779-33.588-68.364-78.239c1.9-58.826,54.859-47.19,54.859-47.19
		c-2.003,0.47-7.343,4.283-9.234,8.348c-2.002,5.07-5.662,16.514,5.406,28.511c17.365,18.824-35.678,44.646,46.19,93.43
		c2.073,1.129-19.195-0.663-28.858-4.846L190.6,356.784L190.6,356.784z"/>
	
		<linearGradient id="SVGID_11_" gradientUnits="userSpaceOnUse" x1="3267.4775" y1="-5888.9736" x2="3267.6924" y2="-5659.3252" gradientTransform="matrix(0.1509 0.0152 0.0152 -0.1509 -199.1322 -605.8652)">
		<stop  offset="0" style="stop-color:#C42482"/>
		<stop  offset="0.08" style="stop-color:#C42482;stop-opacity:0.81"/>
		<stop  offset="0.21" style="stop-color:#C42482;stop-opacity:0.57"/>
		<stop  offset="0.33" style="stop-color:#C42482;stop-opacity:0.36"/>
		<stop  offset="0.45" style="stop-color:#C42482;stop-opacity:0.2"/>
		<stop  offset="0.56" style="stop-color:#C42482;stop-opacity:0.09"/>
		<stop  offset="0.67" style="stop-color:#C42482;stop-opacity:0.02"/>
		<stop  offset="0.77" style="stop-color:#C42482;stop-opacity:0"/>
	</linearGradient>
	<path fill="url(#SVGID_11_)" d="M179,327.478c23.149,8.063,50.093,6.644,66.254-2.272c10.82-6.021,24.686-15.652,33.208-13.271
		c-7.389-2.919-12.981-4.282-19.713-4.621c-1.145,0-2.517,0-3.738-0.148c-2.479-0.01-4.93,0.124-7.386,0.4
		c-4.164,0.394-8.79,3.017-12.986,2.587c-0.229,0,4.07-1.766,3.739-1.688c-2.222,0.473-4.645,0.563-7.198,0.885
		c-1.629,0.188-3.02,0.382-4.635,0.469c-48.222,4.087-88.959-26.135-88.959-26.135c-3.478,11.708,15.535,34.786,41.453,43.814
		L179,327.478z"/>
	
		<linearGradient id="SVGID_12_" gradientUnits="userSpaceOnUse" x1="3589.3252" y1="-4089.6814" x2="4528.1831" y2="-6189.0752" gradientTransform="matrix(0.1524 0 0 -0.1524 -229.6709 -586.7355)">
		<stop  offset="0" style="stop-color:#FFF14F"/>
		<stop  offset="0.27" style="stop-color:#FFEE4C"/>
		<stop  offset="0.45" style="stop-color:#FFE643"/>
		<stop  offset="0.61" style="stop-color:#FFD834"/>
		<stop  offset="0.76" style="stop-color:#FFC41E"/>
		<stop  offset="0.89" style="stop-color:#FFAB02"/>
		<stop  offset="0.9" style="stop-color:#FFA900"/>
		<stop  offset="0.95" style="stop-color:#FFA000"/>
		<stop  offset="1" style="stop-color:#FF9100"/>
	</linearGradient>
	<path fill="url(#SVGID_12_)" d="M407.811,394.978c48.776-47.889,73.446-106.079,63.023-171.368c0,0,4.163,33.48-11.643,67.716
		c7.591-33.425,8.473-74.973-11.698-117.994c-26.916-57.422-71.188-87.644-88.097-100.247
		c-25.599-19.103-36.215-38.542-36.42-42.555c-7.65,15.677-30.791,69.394-2.488,115.656c26.529,43.332,68.295,56.186,97.545,95.982
		C471.927,315.392,407.811,394.978,407.811,394.978z"/>
	
		<linearGradient id="SVGID_13_" gradientUnits="userSpaceOnUse" x1="3775.7705" y1="-5294.6367" x2="3331.0732" y2="-6488.6943" gradientTransform="matrix(0.1524 0 0 -0.1524 -229.6709 -586.7355)">
		<stop  offset="0" style="stop-color:#FF8E00"/>
		<stop  offset="0.04" style="stop-color:#FF8E00;stop-opacity:0.86"/>
		<stop  offset="0.08" style="stop-color:#FF8E00;stop-opacity:0.73"/>
		<stop  offset="0.13" style="stop-color:#FF8E00;stop-opacity:0.63"/>
		<stop  offset="0.18" style="stop-color:#FF8E00;stop-opacity:0.56"/>
		<stop  offset="0.23" style="stop-color:#FF8E00;stop-opacity:0.51"/>
		<stop  offset="0.28" style="stop-color:#FF8E00;stop-opacity:0.5"/>
		<stop  offset="0.39" style="stop-color:#FF8E00;stop-opacity:0.48"/>
		<stop  offset="0.52" style="stop-color:#FF8E00;stop-opacity:0.42"/>
		<stop  offset="0.68" style="stop-color:#FF8E00;stop-opacity:0.31"/>
		<stop  offset="0.84" style="stop-color:#FF8E00;stop-opacity:0.17"/>
		<stop  offset="1" style="stop-color:#FF8E00;stop-opacity:0"/>
	</linearGradient>
	<path fill="url(#SVGID_13_)" d="M400.822,270.39c-17.034-35.21-38.307-50.57-58.444-67.213c2.343,3.279,2.913,4.425,4.215,6.554
		c17.716,18.871,43.834,64.923,24.867,122.714c-35.692,108.809-178.451,57.566-193.436,43.181
		c6.055,62.972,111.436,93.101,180.083,52.288C397.167,390.922,428.756,328.084,400.822,270.39z"/>
</g>
</svg>
