<?xml version="1.0" encoding="utf-8"?>
<!-- Generator: Adobe Illustrator 16.0.0, SVG Export Plug-In . SVG Version: 6.00 Build 0)  -->
<!DOCTYPE svg PUBLIC "-//W3C//DTD SVG 1.1//EN" "http://www.w3.org/Graphics/SVG/1.1/DTD/svg11.dtd">
<svg version="1.1" id="Layer_1" xmlns="http://www.w3.org/2000/svg" xmlns:xlink="http://www.w3.org/1999/xlink" x="0px" y="0px"
	 width="400px" height="400px" viewBox="0 0 400 400" enable-background="new 0 0 400 400" xml:space="preserve">
<g>
	
		<rect x="56.633" y="80.487" transform="matrix(0.9764 0.2162 -0.2162 0.9764 40.1609 -27.5385)" fill="#FF0000" stroke="#FFFFFF" stroke-width="5.6693" stroke-miterlimit="10" width="178.676" height="178.675"/>
	
		<rect x="110.128" y="70.809" transform="matrix(0.8871 0.4615 -0.4615 0.8871 96.2296 -73.8651)" fill="#6EE700" stroke="#FFFFFF" stroke-width="5.6693" stroke-miterlimit="10" width="178.027" height="178.025"/>
	
		<rect x="161.283" y="71.407" transform="matrix(0.7375 0.6754 -0.6754 0.7375 174.0533 -126.9297)" fill="#1722FF" stroke="#FFFFFF" stroke-width="5.6693" stroke-miterlimit="10" width="178.029" height="178.029"/>
</g>
<g>
	<g>
		<path d="M78.018,339.776c-3.567,0-6.469-1.161-8.626-3.451c-2.134-2.264-3.217-5.39-3.217-9.292c0-3.941,1.087-7.086,3.23-9.347
			c2.164-2.28,5.096-3.436,8.715-3.436c2.939,0,5.342,0.666,7.142,1.979c1.813,1.322,3.121,3.324,3.888,5.95l0.442,1.513
			l-8.625,1.556l-0.238-1.414c-0.133-0.787-0.408-1.361-0.817-1.709c-0.415-0.352-0.975-0.523-1.71-0.523
			c-1.021,0-1.768,0.315-2.35,0.99c-0.427,0.495-0.935,1.596-0.935,4.032c0,2.776,0.533,4.015,0.98,4.564
			c0.595,0.73,1.354,1.071,2.386,1.071c0.736,0,1.304-0.188,1.735-0.571c0.31-0.277,0.741-0.921,1.021-2.404l0.259-1.367
			l8.489,1.445l-0.33,1.459c-0.656,2.899-1.959,5.141-3.873,6.664C83.673,339.006,81.127,339.776,78.018,339.776z"/>
		<path fill="#FFFFFF" d="M78.119,315.668c2.645,0,4.746,0.568,6.307,1.707s2.682,2.871,3.363,5.203l-5.663,1.021
			c-0.19-1.131-0.623-1.982-1.298-2.555s-1.551-0.859-2.627-0.859c-1.431,0-2.572,0.494-3.424,1.482
			c-0.853,0.988-1.278,2.641-1.278,4.957c0,2.576,0.433,4.395,1.299,5.459c0.865,1.063,2.026,1.594,3.485,1.594
			c1.09,0,1.982-0.311,2.678-0.93c0.695-0.621,1.186-1.688,1.472-3.199l5.643,0.961c-0.586,2.59-1.711,4.545-3.373,5.867
			c-1.663,1.322-3.892,1.982-6.685,1.982c-3.176,0-5.707-1.002-7.595-3.006c-1.888-2.002-2.831-4.775-2.831-8.32
			c0-3.584,0.946-6.373,2.841-8.371C72.327,316.666,74.89,315.668,78.119,315.668 M78.119,312.833c-4.023,0-7.301,1.305-9.743,3.878
			c-2.402,2.533-3.619,6.006-3.619,10.322c0,4.275,1.212,7.729,3.603,10.265c2.435,2.585,5.685,3.896,9.657,3.896
			c3.438,0,6.28-0.874,8.449-2.599c2.173-1.729,3.645-4.239,4.374-7.46l0.66-2.918l-2.949-0.502l-5.643-0.961l-1.185-0.202
			l0.906-0.163l5.663-1.021l3.102-0.56l-0.884-3.025c-0.857-2.934-2.342-5.187-4.413-6.698
			C84.049,313.591,81.365,312.833,78.119,312.833L78.119,312.833z M78.283,330.843c-0.697,0-1.019-0.219-1.287-0.549
			c-0.11-0.135-0.663-0.951-0.663-3.669c0-2.305,0.492-2.991,0.59-3.105c0.224-0.26,0.533-0.499,1.277-0.499
			c0.262,0,0.612,0.032,0.793,0.187c0.139,0.118,0.265,0.44,0.336,0.863l0.477,2.828l0.251-0.045l-0.411,2.168
			c-0.245,1.293-0.572,1.609-0.575,1.613C79.011,330.689,78.838,330.843,78.283,330.843L78.283,330.843z"/>
	</g>
	<g>
		<path d="M102.037,339.776c-2.204,0-4.332-0.504-6.326-1.498c-2.063-1.026-3.656-2.558-4.733-4.549
			c-1.049-1.939-1.581-4.302-1.581-7.022c0-2.131,0.529-4.218,1.573-6.201c1.068-2.026,2.606-3.599,4.572-4.672
			c1.928-1.051,4.099-1.583,6.454-1.583c3.664,0,6.72,1.219,9.085,3.622c2.359,2.397,3.556,5.453,3.556,9.08
			c0,3.652-1.206,6.734-3.584,9.158C108.666,338.544,105.633,339.776,102.037,339.776z M102.017,321.767
			c-1.102,0-1.967,0.396-2.724,1.243c-0.779,0.872-1.173,2.219-1.173,4.004s0.395,3.132,1.173,4.003
			c0.757,0.849,1.623,1.244,2.724,1.244c1.1,0,1.961-0.395,2.712-1.24c0.773-0.872,1.165-2.234,1.165-4.048
			c0-1.759-0.392-3.094-1.166-3.966C103.978,322.161,103.116,321.767,102.017,321.767z"/>
		<path fill="#FFFFFF" d="M101.996,315.668c3.284,0,5.977,1.066,8.075,3.199s3.148,4.828,3.148,8.086
			c0,3.283-1.06,6.006-3.179,8.166c-2.12,2.16-4.787,3.24-8.004,3.24c-1.989,0-3.888-0.449-5.693-1.35
			c-1.806-0.898-3.179-2.217-4.119-3.955s-1.41-3.854-1.41-6.348c0-1.908,0.47-3.754,1.41-5.541c0.94-1.785,2.272-3.146,3.997-4.088
			C97.945,316.139,99.87,315.668,101.996,315.668 M102.017,333.678c1.499,0,2.757-0.572,3.772-1.717
			c1.015-1.145,1.522-2.809,1.522-4.988c0-2.127-0.508-3.762-1.522-4.906c-1.016-1.145-2.273-1.717-3.772-1.717
			s-2.76,0.572-3.781,1.717c-1.022,1.145-1.533,2.793-1.533,4.947s0.511,3.803,1.533,4.947
			C99.257,333.105,100.518,333.678,102.017,333.678 M101.996,312.833c-2.594,0-4.993,0.591-7.131,1.756
			c-2.217,1.211-3.949,2.979-5.148,5.256c-1.153,2.19-1.737,4.499-1.737,6.862c0,2.959,0.589,5.548,1.751,7.696
			c1.219,2.254,3.019,3.984,5.35,5.145c2.19,1.092,4.531,1.646,6.956,1.646c3.99,0,7.364-1.376,10.027-4.09
			c2.648-2.699,3.99-6.114,3.99-10.151c0-4.013-1.333-7.402-3.962-10.074C109.45,314.194,106.054,312.833,101.996,312.833
			L101.996,312.833z M102.017,330.843c-0.687,0-1.185-0.229-1.667-0.77c-0.54-0.604-0.813-1.634-0.813-3.06s0.273-2.455,0.813-3.059
			c0.482-0.541,0.981-0.771,1.667-0.771c0.683,0,1.177,0.229,1.652,0.764c0.536,0.604,0.808,1.622,0.808,3.024
			c0,1.002-0.141,2.354-0.809,3.107C103.194,330.614,102.7,330.843,102.017,330.843L102.017,330.843z"/>
	</g>
	<g>
		<path d="M142.058,339.286v-13.827c0-2.74-0.336-3.354-0.375-3.415c-0.176-0.27-0.473-0.564-1.253-0.564
			c-0.514,0-0.992,0.159-1.463,0.484c-0.453,0.313-0.778,0.783-0.994,1.437c-0.182,0.55-0.399,1.698-0.399,4.043v11.843h-8.579
			v-13.315c0-2.725-0.179-3.476-0.234-3.641c-0.105-0.315-0.246-0.536-0.419-0.658c-0.177-0.123-0.51-0.192-0.934-0.192
			c-0.604,0-1.126,0.155-1.598,0.474c-0.452,0.304-0.77,0.744-0.975,1.348c-0.176,0.514-0.384,1.628-0.384,4.02v11.966h-8.579
			v-24.545H124v1.149c1.604-1.09,3.393-1.64,5.349-1.64c1.629,0,3.08,0.349,4.311,1.038c0.737,0.413,1.397,0.951,1.975,1.605
			c0.722-0.668,1.485-1.213,2.281-1.627c1.302-0.675,2.711-1.017,4.19-1.017c1.842,0,3.445,0.392,4.764,1.165
			c1.366,0.802,2.394,1.982,3.057,3.51c0.479,1.127,0.71,2.779,0.71,5.063v15.298H142.058z"/>
		<path fill="#FFFFFF" d="M142.105,315.668c1.595,0,2.944,0.324,4.048,0.971c1.104,0.648,1.929,1.598,2.474,2.852
			c0.395,0.928,0.593,2.426,0.593,4.498v13.881h-5.744v-12.41c0-2.152-0.198-3.543-0.593-4.17c-0.532-0.816-1.35-1.227-2.453-1.227
			c-0.805,0-1.562,0.246-2.27,0.736c-0.709,0.49-1.22,1.209-1.533,2.156s-0.471,2.443-0.471,4.488v10.426h-5.744v-11.898
			c0-2.111-0.103-3.475-0.307-4.088s-0.521-1.07-0.95-1.371c-0.43-0.299-1.012-0.449-1.748-0.449c-0.886,0-1.684,0.238-2.392,0.717
			c-0.709,0.477-1.217,1.164-1.523,2.064c-0.307,0.898-0.46,2.391-0.46,4.477v10.549h-5.744v-21.711h5.295v2.965
			c1.894-2.303,4.149-3.455,6.767-3.455c1.39,0,2.596,0.285,3.618,0.857c1.022,0.574,1.86,1.439,2.515,2.598
			c0.953-1.158,1.982-2.023,3.087-2.598C139.673,315.953,140.852,315.668,142.105,315.668 M142.105,312.833
			c-1.708,0-3.337,0.396-4.841,1.176c-0.534,0.278-1.053,0.605-1.556,0.98c-0.422-0.354-0.873-0.666-1.353-0.936
			c-1.448-0.811-3.131-1.221-5.006-1.221c-1.388,0-2.701,0.239-3.932,0.713v-0.223h-2.834h-5.295h-2.834v2.835v21.711v2.835h2.834
			h5.744h2.834v-2.835V327.32c0-2.467,0.236-3.35,0.308-3.561c0.135-0.396,0.296-0.543,0.422-0.628
			c0.242-0.163,0.49-0.234,0.81-0.234c0.011,0,0.021,0,0.031,0c0.044,0.279,0.14,1.104,0.14,3.073v11.898v2.835h2.834h5.744h2.834
			v-2.835v-10.426c0-2.354,0.229-3.301,0.327-3.598c0.154-0.467,0.333-0.632,0.455-0.715c0.297-0.206,0.499-0.233,0.657-0.233
			c0.014,0,0.027,0,0.04,0c0.069,0.342,0.171,1.095,0.171,2.562v12.41v2.835h2.834h5.744h2.834v-2.835v-13.881
			c0-2.512-0.26-4.294-0.819-5.607c-0.794-1.828-2.018-3.229-3.646-4.187C146.046,313.291,144.202,312.833,142.105,312.833
			L142.105,312.833z"/>
	</g>
	<g>
		<path d="M153.363,347.544v-32.803h8.191v1.157c0.224-0.153,0.456-0.3,0.696-0.438c1.398-0.804,2.963-1.21,4.653-1.21
			c2.931,0,5.447,1.157,7.478,3.439c1.988,2.232,2.996,5.328,2.996,9.2c0,3.964-1.013,7.123-3.011,9.391
			c-2.046,2.319-4.57,3.495-7.503,3.495c-1.413,0-2.719-0.289-3.884-0.858c-0.345-0.17-0.69-0.37-1.037-0.604v9.229H153.363z
			 M165.35,321.622c-0.991,0-1.759,0.359-2.419,1.131c-0.697,0.813-1.049,2.123-1.049,3.894c0,2.088,0.378,3.603,1.125,4.501
			c0.7,0.844,1.477,1.236,2.445,1.236c0.912,0,1.624-0.348,2.24-1.092c0.458-0.553,1.003-1.757,1.003-4.36
			c0-1.926-0.352-3.328-1.045-4.168C167.006,321.985,166.274,321.622,165.35,321.622z"/>
		<path fill="#FFFFFF" d="M166.903,315.668c2.521,0,4.66,0.988,6.419,2.965c1.758,1.975,2.637,4.729,2.637,8.258
			c0,3.625-0.886,6.443-2.657,8.453c-1.772,2.01-3.919,3.016-6.439,3.016c-1.2,0-2.287-0.238-3.261-0.715
			c-0.975-0.479-2-1.295-3.077-2.453v10.936h-5.744v-29.969h5.356v3.189c0.694-1.09,1.635-1.977,2.82-2.658
			C164.144,316.008,165.458,315.668,166.903,315.668 M165.451,333.801c1.336,0,2.446-0.535,3.332-1.605
			c0.886-1.068,1.329-2.824,1.329-5.264c0-2.275-0.457-3.965-1.369-5.07c-0.914-1.104-2.045-1.656-3.394-1.656
			c-1.404,0-2.569,0.543-3.496,1.627c-0.927,1.082-1.39,2.688-1.39,4.814c0,2.439,0.483,4.24,1.451,5.406
			S164.062,333.801,165.451,333.801 M166.903,312.833c-1.387,0-2.704,0.24-3.932,0.717v-0.227h-2.834h-5.356h-2.834v2.835v29.969
			v2.835h2.834h5.744h2.834v-2.835v-5.515c1.091,0.387,2.264,0.582,3.503,0.582c3.357,0,6.239-1.338,8.565-3.976
			c2.233-2.534,3.366-6.009,3.366-10.328c0-4.23-1.128-7.643-3.354-10.143C173.128,314.15,170.256,312.833,166.903,312.833
			L166.903,312.833z M165.451,330.966c-0.392,0-0.827-0.087-1.355-0.724c-0.298-0.358-0.798-1.304-0.798-3.596
			c0-1.383,0.251-2.438,0.708-2.971c0.392-0.458,0.768-0.636,1.343-0.636c0.414,0,0.777,0.106,1.21,0.63
			c0.266,0.322,0.718,1.18,0.718,3.262c0,2.448-0.518,3.263-0.677,3.454C166.201,330.869,165.865,330.966,165.451,330.966
			L165.451,330.966z"/>
	</g>
	<g>
		<path d="M186.221,339.776c-2.599,0-4.704-0.742-6.257-2.206c-1.577-1.484-2.376-3.38-2.376-5.631c0-1.485,0.366-2.837,1.086-4.02
			c0.729-1.191,1.756-2.115,3.056-2.744c0.761-0.369,1.703-0.698,2.852-0.996l-6.768-1.219l0.418-1.5
			c0.673-2.41,1.875-4.24,3.573-5.439c1.692-1.191,4.045-1.771,7.195-1.771c2.807,0,4.881,0.344,6.342,1.052
			c1.515,0.731,2.616,1.708,3.272,2.901c0.643,1.175,0.942,3.025,0.942,5.825l-0.062,6.718c0,1.792,0.083,3.117,0.247,3.927
			c0.161,0.788,0.469,1.654,0.918,2.574l0.995,2.038h-8.918l-0.354-0.898c-0.054-0.137-0.11-0.291-0.169-0.463
			c-0.599,0.407-1.219,0.749-1.857,1.022C189.065,339.498,187.674,339.776,186.221,339.776z M191.071,329.306
			c-0.519,0.126-1.108,0.26-1.773,0.402c-2.024,0.432-2.551,0.737-2.635,0.794c-0.433,0.307-0.496,0.589-0.496,0.846
			c0,0.422,0.145,0.751,0.471,1.068c0.334,0.328,0.747,0.479,1.301,0.479c0.735,0,1.433-0.247,2.132-0.754
			c0.43-0.32,0.71-0.7,0.841-1.149C190.948,330.872,191.043,330.466,191.071,329.306z M188.593,321.479
			c-0.71,0-1.255,0.12-1.578,0.347c-0.221,0.155-0.552,0.529-0.867,1.426l-0.216,0.613c0.232-0.049,0.472-0.097,0.718-0.144
			c1.921-0.362,3.397-0.701,4.411-1.013c-0.042-0.424-0.148-0.731-0.307-0.869C190.713,321.806,190.285,321.479,188.593,321.479z"/>
		<path fill="#FFFFFF" d="M189.001,315.668c2.563,0,4.471,0.303,5.725,0.91c1.254,0.605,2.136,1.377,2.647,2.309
			c0.511,0.934,0.767,2.648,0.767,5.143l-0.062,6.705c0,1.908,0.092,3.314,0.275,4.221c0.185,0.906,0.528,1.879,1.033,2.914h-5.684
			c-0.15-0.383-0.334-0.947-0.552-1.697c-0.096-0.34-0.164-0.564-0.204-0.674c-0.981,0.953-2.031,1.668-3.148,2.146
			c-1.118,0.477-2.311,0.715-3.578,0.715c-2.235,0-3.996-0.605-5.284-1.82c-1.288-1.213-1.932-2.746-1.932-4.6
			c0-1.227,0.293-2.32,0.879-3.281c0.586-0.959,1.407-1.695,2.464-2.207c1.056-0.512,2.578-0.957,4.568-1.338
			c2.685-0.506,4.545-0.975,5.581-1.412v-0.572c0-1.104-0.272-1.891-0.817-2.361c-0.546-0.469-1.574-0.705-3.087-0.705
			c-1.022,0-1.819,0.201-2.393,0.604c-0.572,0.402-1.035,1.107-1.39,2.115l-5.213-0.939c0.586-2.1,1.595-3.652,3.025-4.662
			C184.054,316.172,186.181,315.668,189.001,315.668 M187.938,334.313c1.035,0,2.023-0.342,2.964-1.023
			c0.695-0.518,1.151-1.15,1.37-1.9c0.149-0.49,0.225-1.424,0.225-2.801v-1.145c-0.736,0.244-1.901,0.537-3.496,0.879
			c-1.594,0.34-2.637,0.674-3.127,1.002c-0.75,0.531-1.125,1.205-1.125,2.023c0,0.805,0.3,1.5,0.899,2.084
			C186.248,334.02,187.012,334.313,187.938,334.313 M189.001,312.833c-3.452,0-6.072,0.664-8.01,2.029
			c-1.974,1.394-3.361,3.484-4.124,6.218l-0.837,2.999l3.064,0.553l0.611,0.109c-0.902,0.659-1.652,1.476-2.241,2.439
			c-0.859,1.409-1.294,3.01-1.294,4.759c0,2.62,0.976,4.924,2.823,6.663c1.823,1.719,4.255,2.592,7.228,2.592
			c1.646,0,3.223-0.317,4.689-0.942c0.195-0.083,0.388-0.172,0.579-0.267l0.282,0.719h1.932h5.684h4.536l-1.988-4.077
			c-0.396-0.813-0.667-1.565-0.804-2.237c-0.099-0.49-0.218-1.525-0.218-3.655l0.062-6.679c0-3.073-0.354-5.14-1.114-6.529
			c-0.803-1.462-2.115-2.638-3.902-3.501C194.303,313.224,192.026,312.833,189.001,312.833L189.001,312.833z M188.061,331.474
			c0.184-0.055,0.415-0.118,0.701-0.188C188.479,331.42,188.244,331.463,188.061,331.474L188.061,331.474z"/>
	</g>
	<g>
		<path d="M216.388,339.286v-12.497c0-2.952-0.2-3.833-0.286-4.074c-0.146-0.409-0.358-0.7-0.668-0.915
			c-0.312-0.215-0.699-0.32-1.186-0.32c-0.707,0-1.319,0.186-1.872,0.567c-0.533,0.367-0.887,0.838-1.083,1.439
			c-0.169,0.516-0.37,1.722-0.37,4.549v11.251h-8.58v-24.545h8.17v1.275c1.675-1.174,3.595-1.766,5.739-1.766
			c1.458,0,2.817,0.27,4.041,0.803c1.268,0.551,2.258,1.287,2.943,2.188c0.657,0.864,1.12,1.855,1.376,2.945
			c0.238,1.017,0.354,2.387,0.354,4.189v14.909H216.388z"/>
		<path fill="#FFFFFF" d="M216.252,315.668c1.268,0,2.426,0.229,3.475,0.686c1.049,0.455,1.844,1.039,2.381,1.746
			c0.539,0.709,0.914,1.514,1.125,2.412c0.211,0.9,0.316,2.188,0.316,3.865v13.492h-5.744v-11.08c0-2.344-0.123-3.861-0.367-4.549
			c-0.246-0.688-0.645-1.223-1.197-1.605c-0.551-0.381-1.215-0.572-1.992-0.572c-0.996,0-1.889,0.273-2.678,0.818
			c-0.791,0.545-1.332,1.268-1.625,2.166c-0.295,0.9-0.439,2.563-0.439,4.988v9.834h-5.746v-21.711h5.336v3.189
			C210.99,316.895,213.375,315.668,216.252,315.668 M216.252,312.833c-1.529,0-2.979,0.278-4.321,0.82v-0.33h-2.835h-5.336h-2.834
			v2.835v21.711v2.835h2.834h5.746h2.835v-2.835v-9.834c0-2.964,0.229-3.892,0.298-4.105c0.102-0.312,0.263-0.523,0.54-0.715
			c0.319-0.22,0.648-0.317,1.069-0.317c0.084,0,0.29,0.007,0.38,0.068c0.024,0.018,0.078,0.055,0.141,0.229
			c0.012,0.045,0.201,0.769,0.201,3.594v11.08v2.835h2.835h5.744h2.835v-2.835v-13.492c0-1.912-0.128-3.389-0.392-4.512
			c-0.302-1.286-0.85-2.457-1.628-3.481c-0.833-1.097-2.015-1.982-3.51-2.631C219.456,313.144,217.905,312.833,216.252,312.833
			L216.252,312.833z"/>
	</g>
	<g>
		<path d="M231.808,348.097c-1.204,0-2.399-0.128-3.553-0.38l-0.991-0.217l-0.844-7.433l1.901,0.376
			c0.802,0.158,1.528,0.239,2.158,0.239c1.332,0,1.734-0.492,1.867-0.654c0.438-0.537,0.797-1.225,1.071-2.049l-8.815-23.238h9.185
			l4.158,12.344l4.061-12.344h9.003l-8.364,22.798l-1.367,3.775c-0.565,1.421-1.085,2.461-1.604,3.221
			c-0.552,0.807-1.201,1.474-1.931,1.986c-0.723,0.507-1.609,0.904-2.634,1.18C234.13,347.964,233.02,348.097,231.808,348.097z"/>
		<path fill="#FFFFFF" d="M248.979,316.158l-7.666,20.893l-1.369,3.781c-0.505,1.268-0.985,2.236-1.441,2.904
			c-0.457,0.668-0.981,1.209-1.574,1.625s-1.322,0.738-2.188,0.971s-1.843,0.348-2.934,0.348c-1.104,0-2.188-0.115-3.25-0.348
			l-0.511-4.498c0.899,0.178,1.71,0.266,2.433,0.266c1.335,0,2.323-0.391,2.964-1.174c0.641-0.785,1.131-1.783,1.472-2.996
			l-8.259-21.771h6.112l5.192,15.414l5.07-15.414H248.979 M253.039,313.323h-4.06h-5.948h-2.052l-0.641,1.949l-2.41,7.325
			l-2.474-7.345l-0.65-1.93h-2.036h-6.112h-4.107l1.457,3.841l7.899,20.823c-0.188,0.455-0.407,0.839-0.658,1.146
			c-0.027,0.033-0.264,0.131-0.768,0.131c-0.538,0-1.172-0.071-1.883-0.212l-3.804-0.751l0.438,3.853l0.511,4.498l0.229,2.016
			l1.982,0.434c1.253,0.273,2.55,0.413,3.855,0.413c1.336,0,2.57-0.15,3.669-0.445c1.186-0.318,2.222-0.785,3.08-1.388
			c0.87-0.61,1.639-1.399,2.286-2.345c0.58-0.85,1.146-1.979,1.735-3.456l0.017-0.042l0.015-0.042l1.369-3.781l7.662-20.881
			L253.039,313.323L253.039,313.323z"/>
	</g>
	<g>
		<rect x="262.875" y="306.483" width="8.579" height="32.803"/>
		<path fill="#FFFFFF" d="M270.037,307.9v29.969h-5.745V307.9H270.037 M272.872,305.065h-2.835h-5.745h-2.835v2.835v29.969v2.835
			h2.835h5.745h2.835v-2.835V307.9V305.065L272.872,305.065z"/>
	</g>
	<g>
		<path d="M285.818,339.776c-2.203,0-4.332-0.504-6.326-1.498c-2.063-1.026-3.655-2.558-4.732-4.549
			c-1.05-1.939-1.581-4.302-1.581-7.022c0-2.131,0.529-4.218,1.573-6.201c1.067-2.026,2.605-3.598,4.57-4.672
			c1.93-1.051,4.101-1.583,6.455-1.583c3.663,0,6.721,1.219,9.086,3.622c2.358,2.397,3.555,5.453,3.555,9.08
			c0,3.652-1.206,6.733-3.585,9.158C292.447,338.544,289.414,339.776,285.818,339.776z M285.798,321.767
			c-1.102,0-1.967,0.396-2.726,1.244c-0.777,0.872-1.173,2.219-1.173,4.003s0.396,3.131,1.174,4.004
			c0.758,0.848,1.623,1.243,2.725,1.243c1.099,0,1.961-0.395,2.711-1.24c0.774-0.872,1.167-2.234,1.167-4.048
			c0-1.759-0.393-3.094-1.167-3.966C287.759,322.161,286.896,321.767,285.798,321.767z"/>
		<path fill="#FFFFFF" d="M285.777,315.668c3.284,0,5.977,1.066,8.075,3.199s3.148,4.828,3.148,8.086
			c0,3.283-1.061,6.006-3.18,8.166s-4.787,3.24-8.003,3.24c-1.99,0-3.888-0.449-5.693-1.35c-1.806-0.898-3.179-2.217-4.119-3.955
			s-1.41-3.854-1.41-6.348c0-1.908,0.47-3.754,1.41-5.541c0.94-1.785,2.272-3.146,3.996-4.088
			C281.727,316.139,283.651,315.668,285.777,315.668 M285.798,333.678c1.499,0,2.756-0.572,3.771-1.717s1.523-2.809,1.523-4.988
			c0-2.127-0.508-3.762-1.523-4.906s-2.272-1.717-3.771-1.717s-2.76,0.572-3.782,1.717c-1.021,1.145-1.533,2.793-1.533,4.947
			s0.512,3.803,1.533,4.947C283.038,333.105,284.299,333.678,285.798,333.678 M285.777,312.833c-2.594,0-4.993,0.591-7.132,1.756
			c-2.217,1.211-3.948,2.979-5.147,5.256c-1.152,2.19-1.737,4.499-1.737,6.862c0,2.959,0.59,5.548,1.752,7.696
			c1.22,2.254,3.02,3.984,5.35,5.145c2.19,1.092,4.531,1.646,6.956,1.646c3.991,0,7.364-1.376,10.026-4.09
			c2.648-2.699,3.991-6.115,3.991-10.151c0-4.013-1.334-7.402-3.963-10.074C293.231,314.194,289.835,312.833,285.777,312.833
			L285.777,312.833z M285.798,330.843c-0.687,0-1.186-0.23-1.668-0.771c-0.539-0.604-0.813-1.633-0.813-3.059
			s0.273-2.455,0.813-3.06c0.481-0.539,0.98-0.77,1.667-0.77c0.691,0,1.17,0.221,1.651,0.764c0.537,0.604,0.809,1.622,0.809,3.024
			c0,1.001-0.14,2.354-0.809,3.106C286.968,330.622,286.489,330.843,285.798,330.843L285.798,330.843z"/>
	</g>
	<g>
		<path d="M311.086,348.097c-4.054,0-6.909-0.723-8.728-2.211c-1.878-1.538-2.829-3.521-2.829-5.892
			c0-0.211,0.007-0.465,0.021-0.766l0.076-1.521l5.208,0.634c-1.468-0.718-2.733-1.843-3.787-3.368
			c-1.497-2.185-2.255-4.903-2.255-8.083c0-3.984,1.008-7.112,2.996-9.294c2.022-2.221,4.573-3.346,7.58-3.346
			c1.95,0,3.698,0.531,5.227,1.587v-1.097h8.21v20.899c0,2.74-0.23,4.766-0.705,6.191c-0.495,1.486-1.219,2.686-2.149,3.566
			c-0.916,0.867-2.126,1.546-3.598,2.018C314.942,347.868,313.171,348.097,311.086,348.097z M308.933,339.898
			c0.07,0.494,0.193,0.634,0.195,0.635c0.14,0.104,0.573,0.335,1.733,0.335c1.531,0,2.283-0.258,2.645-0.475
			c0.23-0.137,0.409-0.38,0.552-0.747c0.021-0.058,0.156-0.495,0.169-1.909c-1.491,1.03-3.19,1.549-5.083,1.549
			c-0.101,0-0.199-0.001-0.299-0.004L308.933,339.898z M310.841,321.479c-0.956,0-1.692,0.349-2.315,1.097
			c-0.671,0.803-1.011,2.146-1.011,3.988c0,1.923,0.35,3.358,1.011,4.15c0.623,0.748,1.326,1.097,2.213,1.097
			c0.999,0,1.792-0.371,2.495-1.167c0.728-0.825,1.097-2.149,1.097-3.938c0-1.892-0.354-3.268-1.054-4.09
			C312.618,321.841,311.844,321.479,310.841,321.479z"/>
		<path fill="#FFFFFF" d="M309.369,315.668c2.685,0,4.898,1.18,6.644,3.537v-3.047h5.376v19.482c0,2.563-0.211,4.477-0.633,5.744
			c-0.423,1.268-1.016,2.262-1.779,2.984c-0.763,0.723-1.781,1.289-3.056,1.697s-2.886,0.613-4.835,0.613
			c-3.68,0-6.29-0.631-7.83-1.891c-1.54-1.262-2.31-2.859-2.31-4.795c0-0.191,0.007-0.422,0.021-0.695l6.563,0.799
			c0.108,0.762,0.36,1.287,0.756,1.574c0.545,0.408,1.403,0.613,2.576,0.613c1.499,0,2.623-0.227,3.373-0.676
			c0.504-0.299,0.886-0.783,1.145-1.451c0.177-0.477,0.266-1.355,0.266-2.637v-3.17c-1.717,2.346-3.884,3.518-6.501,3.518
			c-2.916,0-5.227-1.234-6.93-3.701c-1.336-1.949-2.004-4.375-2.004-7.277c0-3.639,0.876-6.418,2.627-8.34
			S306.766,315.668,309.369,315.668 M310.738,333.229c1.403,0,2.589-0.549,3.558-1.646c0.967-1.096,1.451-2.721,1.451-4.875
			c0-2.248-0.464-3.918-1.391-5.008c-0.927-1.092-2.099-1.637-3.516-1.637c-1.377,0-2.512,0.535-3.404,1.605
			s-1.339,2.701-1.339,4.896c0,2.303,0.446,3.988,1.339,5.059S309.43,333.229,310.738,333.229 M309.369,312.833
			c-3.423,0-6.325,1.281-8.628,3.809c-2.233,2.452-3.366,5.9-3.366,10.249c0,3.472,0.842,6.459,2.501,8.88
			c0.141,0.204,0.285,0.401,0.433,0.593l-2.021-0.246l-0.152,3.04c-0.017,0.329-0.024,0.606-0.024,0.837
			c0,2.777,1.158,5.193,3.348,6.987c2.084,1.705,5.232,2.533,9.627,2.533c2.263,0,4.127-0.245,5.699-0.749
			c1.677-0.536,3.069-1.323,4.141-2.339c1.102-1.042,1.949-2.437,2.52-4.145c0.523-1.575,0.778-3.747,0.778-6.642v-19.482v-2.835
			h-2.835h-5.376h-2.835v0.19C311.989,313.063,310.713,312.833,309.369,312.833L309.369,312.833z M310.738,330.394
			c-0.393,0-0.718-0.098-1.125-0.586c-0.205-0.246-0.681-1.054-0.681-3.243c0-1.97,0.427-2.776,0.681-3.081
			c0.356-0.428,0.689-0.586,1.228-0.586c0.586,0,0.966,0.178,1.354,0.636c0.269,0.316,0.717,1.146,0.717,3.174
			c0,1.412-0.256,2.449-0.742,3C311.739,330.194,311.324,330.394,310.738,330.394L310.738,330.394z"/>
	</g>
	<g>
		<path d="M336.966,339.776c-2.203,0-4.332-0.504-6.326-1.498c-2.063-1.026-3.655-2.558-4.732-4.549
			c-1.05-1.939-1.581-4.302-1.581-7.022c0-2.131,0.529-4.218,1.573-6.201c1.067-2.026,2.605-3.598,4.57-4.672
			c1.93-1.051,4.101-1.583,6.455-1.583c3.663,0,6.721,1.219,9.086,3.622c2.358,2.397,3.555,5.453,3.555,9.08
			c0,3.652-1.206,6.733-3.585,9.158C343.595,338.544,340.562,339.776,336.966,339.776z M336.945,321.767
			c-1.102,0-1.967,0.396-2.726,1.244c-0.777,0.872-1.173,2.219-1.173,4.003s0.396,3.131,1.174,4.004
			c0.758,0.848,1.623,1.243,2.725,1.243c1.099,0,1.961-0.395,2.711-1.24c0.774-0.872,1.167-2.234,1.167-4.048
			c0-1.759-0.393-3.094-1.167-3.966C338.906,322.161,338.044,321.767,336.945,321.767z"/>
		<path fill="#FFFFFF" d="M336.925,315.668c3.284,0,5.977,1.066,8.075,3.199s3.148,4.828,3.148,8.086
			c0,3.283-1.061,6.006-3.18,8.166s-4.787,3.24-8.003,3.24c-1.99,0-3.888-0.449-5.693-1.35c-1.806-0.898-3.179-2.217-4.119-3.955
			s-1.41-3.854-1.41-6.348c0-1.908,0.47-3.754,1.41-5.541c0.94-1.785,2.272-3.146,3.996-4.088
			C332.874,316.139,334.799,315.668,336.925,315.668 M336.945,333.678c1.499,0,2.756-0.572,3.771-1.717s1.523-2.809,1.523-4.988
			c0-2.127-0.508-3.762-1.523-4.906s-2.272-1.717-3.771-1.717s-2.76,0.572-3.782,1.717c-1.021,1.145-1.533,2.793-1.533,4.947
			s0.512,3.803,1.533,4.947C334.186,333.105,335.446,333.678,336.945,333.678 M336.925,312.833c-2.594,0-4.993,0.591-7.132,1.756
			c-2.217,1.211-3.948,2.979-5.147,5.256c-1.153,2.19-1.737,4.499-1.737,6.862c0,2.959,0.59,5.548,1.752,7.696
			c1.22,2.254,3.02,3.984,5.35,5.145c2.19,1.092,4.531,1.646,6.956,1.646c3.991,0,7.364-1.376,10.026-4.09
			c2.648-2.699,3.991-6.115,3.991-10.151c0-4.013-1.333-7.402-3.963-10.074C344.379,314.194,340.982,312.833,336.925,312.833
			L336.925,312.833z M336.945,330.843c-0.687,0-1.186-0.23-1.668-0.771c-0.539-0.604-0.813-1.633-0.813-3.059
			s0.273-2.455,0.813-3.06c0.481-0.539,0.98-0.77,1.667-0.77c0.691,0,1.17,0.221,1.651,0.764c0.537,0.604,0.809,1.622,0.809,3.024
			c0,1.001-0.14,2.354-0.809,3.106C338.115,330.622,337.637,330.843,336.945,330.843L336.945,330.843z"/>
	</g>
</g>
</svg>
